HIERARCHY
ROOT Hips
{
	OFFSET -0.001795 -0.223333 0.028219
	CHANNELS 6 Xposition Yposition Zposition Zrotation Yrotation Xrotation 
	JOINT LeftUpLeg
	{
		OFFSET 0.069520 -0.091406 -0.006815
		CHANNELS 3 Zrotation Yrotation Xrotation
		JOINT LeftLeg
		{
			OFFSET 0.034277 -0.375199 -0.004496
			CHANNELS 3 Zrotation Yrotation Xrotation
			JOINT LeftFoot
			{
				OFFSET -0.013596 -0.397961 -0.043693
				CHANNELS 3 Zrotation Yrotation Xrotation
				JOINT LeftToe
				{
					OFFSET 0.026358 -0.055791 0.119288
					CHANNELS 3 Zrotation Yrotation Xrotation
					End Site
					{
						OFFSET 0.000000 0.000000 0.000000
					}
				}
			}
		}
	}
	JOINT RightUpLeg
	{
		OFFSET -0.067670 -0.090522 -0.004320
		CHANNELS 3 Zrotation Yrotation Xrotation
		JOINT RightLeg
		{
			OFFSET -0.038290 -0.382569 -0.008850
			CHANNELS 3 Zrotation Yrotation Xrotation
			JOINT RightFoot
			{
				OFFSET 0.015774 -0.398415 -0.042312
				CHANNELS 3 Zrotation Yrotation Xrotation
				JOINT RightToe
				{
					OFFSET -0.025372 -0.048144 0.123348
					CHANNELS 3 Zrotation Yrotation Xrotation
					End Site
					{
						OFFSET 0.000000 0.000000 0.000000
					}
				}
			}
		}
	}
	JOINT Spine
	{
		OFFSET -0.002533 0.108963 -0.026696
		CHANNELS 3 Zrotation Yrotation Xrotation
		JOINT Spine1
		{
			OFFSET 0.005487 0.135180 0.001092
			CHANNELS 3 Zrotation Yrotation Xrotation
			JOINT Spine2
			{
				OFFSET 0.001457 0.052922 0.025425
				CHANNELS 3 Zrotation Yrotation Xrotation
				JOINT Neck
				{
					OFFSET -0.002778 0.213870 -0.042857
					CHANNELS 3 Zrotation Yrotation Xrotation
					JOINT Head
					{
						OFFSET 0.005152 0.064970 0.051349
						CHANNELS 3 Zrotation Yrotation Xrotation
						End Site
						{
							OFFSET 0.000000 0.000000 0.000000
						}
					}
				}
				JOINT LeftShoulder
				{
					OFFSET 0.078845 0.121749 -0.034090
					CHANNELS 3 Zrotation Yrotation Xrotation
					JOINT LeftArm
					{
						OFFSET 0.090977 0.030469 -0.008868
						CHANNELS 3 Zrotation Yrotation Xrotation
						JOINT LeftForeArm
						{
							OFFSET 0.259612 -0.012772 -0.027456
							CHANNELS 3 Zrotation Yrotation Xrotation
							JOINT LeftHand
							{
								OFFSET 0.249234 0.008986 -0.001171
								CHANNELS 3 Zrotation Yrotation Xrotation
								End Site
								{
									OFFSET 0.000000 0.000000 0.000000
								}
							}
						}
					}
				}
				JOINT RightShoulder
				{
					OFFSET -0.081759 0.118833 -0.038615
					CHANNELS 3 Zrotation Yrotation Xrotation
					JOINT RightArm
					{
						OFFSET -0.096012 0.032551 -0.009143
						CHANNELS 3 Zrotation Yrotation Xrotation
						JOINT RightForeArm
						{
							OFFSET -0.253742 -0.013329 -0.021401
							CHANNELS 3 Zrotation Yrotation Xrotation
							JOINT RightHand
							{
								OFFSET -0.255298 0.007772 -0.005559
								CHANNELS 3 Zrotation Yrotation Xrotation
								End Site
								{
									OFFSET 0.000000 0.000000 0.000000
								}
							}
						}
					}
				}
			}
		}
	}
}
MOTION
Frames: 8
Frame Time: 0.050000
-0.057551 0.842968 0.223355 0.575542 15.049646 -1.595342 -0.641070 -4.701998 -32.866016 -4.449292 -5.021824 62.625422 2.492343 6.063151 1.672781 0.000000 0.000000 0.000000 -5.179993 0.228386 -31.573126 4.205054 -6.118746 60.891179 -5.606074 -13.101812 -6.372214 0.000000 0.000000 0.000000 1.576456 -3.279332 32.056790 0.215661 0.281680 -5.212121 3.171653 -3.982551 0.886690 -4.580590 3.972997 -13.470343 0.000000 0.000000 0.000000 -7.007182 -1.253405 -0.327230 -56.168976 9.420913 -10.961559 -45.196974 -32.846864 14.958626 0.000000 0.000000 0.000000 1.403032 0.591865 0.113387 57.483703 -17.760016 -13.533108 60.844389 45.292299 28.973588 0.000000 0.000000 0.000000 
-0.062768 0.796436 0.218687 -0.004379 15.212933 -2.115339 0.643688 -5.381271 -37.863154 -7.360343 -3.808262 72.472538 4.975787 9.170736 -4.570668 0.000000 0.000000 0.000000 -3.946051 0.317752 -38.660520 1.625920 -5.418693 73.833091 -7.147928 -17.063707 -6.727493 0.000000 0.000000 0.000000 1.254106 -4.452180 39.644312 0.312080 0.297288 -6.320030 4.183867 -2.233283 -0.648660 -5.484218 4.602905 -17.340994 0.000000 0.000000 0.000000 -8.606583 -0.681352 -0.850874 -57.072027 11.838165 -12.200359 -38.561700 -27.569718 10.426012 0.000000 0.000000 0.000000 3.737494 0.760684 0.043526 59.103050 -15.579150 -12.737705 50.793236 47.394309 25.166583 0.000000 0.000000 0.000000 
-0.068964 0.781424 0.213777 0.367105 15.408838 0.213565 2.198992 -5.912609 -42.833224 -9.660885 -1.608720 75.404966 5.790469 11.095107 -4.912969 0.000000 0.000000 0.000000 -4.505788 -0.188149 -43.332811 1.770029 -5.513092 76.335763 -7.650983 -18.327635 -7.746430 0.000000 0.000000 0.000000 1.261526 -4.816345 41.374337 0.606095 0.239874 -7.682282 4.142818 -1.385782 -1.110088 -6.587622 5.238854 -18.342843 0.000000 0.000000 0.000000 -9.420687 -1.811136 -0.586167 -57.318096 12.106315 -12.289219 -36.771873 -23.754202 8.376800 0.000000 0.000000 0.000000 3.048831 1.778960 0.498653 60.698597 -13.152459 -11.684472 45.642472 48.849245 23.488641 0.000000 0.000000 0.000000 
-0.075108 0.786306 0.207026 0.408701 14.938583 3.667993 4.161626 -5.937047 -47.098190 -11.023673 0.363054 76.169778 5.854039 11.103428 -5.900160 0.000000 0.000000 0.000000 -4.086973 -0.204176 -48.091279 2.517542 -5.507014 75.843674 -7.153262 -16.853654 -8.222061 0.000000 0.000000 0.000000 0.775957 -4.966155 43.582601 0.590326 0.385461 -10.869502 4.101251 -0.301993 -1.534531 -4.912250 4.345082 -19.018432 0.000000 0.000000 0.000000 -7.812418 -3.338024 0.149437 -58.997598 11.435990 -12.322752 -36.817409 -22.609574 7.825006 0.000000 0.000000 0.000000 3.530990 2.636491 0.859077 60.810043 -9.641186 -9.685852 41.668234 51.711517 23.101551 0.000000 0.000000 0.000000 
-0.080335 0.798577 0.200178 1.014121 14.384384 7.683028 4.410546 -6.168221 -49.509574 -10.750465 0.743785 73.708611 6.249960 11.859316 -6.964457 0.000000 0.000000 0.000000 -4.079748 -0.278809 -51.497211 3.471856 -5.687152 74.462137 -7.018813 -16.532052 -7.592827 0.000000 0.000000 0.000000 0.940172 -4.900905 43.168713 0.513144 0.446939 -12.293361 3.461553 -0.022114 -1.638895 -5.947410 4.853685 -21.407500 0.000000 0.000000 0.000000 -9.566198 -2.852982 -0.328732 -57.128670 8.887344 -10.407245 -36.316910 -24.776422 8.449018 0.000000 0.000000 0.000000 2.026631 2.748148 0.966562 61.152084 -4.814801 -7.031825 40.057113 55.387754 24.275801 0.000000 0.000000 0.000000 
-0.084331 0.808194 0.196837 1.018042 12.793313 9.826208 4.150537 -6.027656 -50.119931 -9.220253 0.173835 71.104864 6.266205 12.038859 -6.479163 0.000000 0.000000 0.000000 -3.611461 0.268934 -53.542812 4.082655 -5.386522 73.979322 -6.740876 -15.812937 -7.296266 0.000000 0.000000 0.000000 0.887028 -4.269726 41.018832 0.403969 0.462007 -12.666664 2.397623 0.191683 -0.116034 -4.188490 4.092854 -24.903683 0.000000 0.000000 0.000000 -8.652405 -6.666959 1.407057 -57.607119 2.339488 -7.508641 -32.714000 -34.903685 11.074326 0.000000 0.000000 0.000000 2.337616 5.737981 2.161244 59.371229 3.240140 -2.956006 31.487227 60.691864 22.035323 0.000000 0.000000 0.000000 
-0.087426 0.820010 0.199917 1.083667 12.913718 9.594747 1.632613 -6.471231 -47.021393 -5.867528 -2.842422 68.211537 5.967175 10.886199 -7.565445 0.000000 0.000000 0.000000 -2.759090 0.734228 -51.610345 3.716587 -5.174600 73.010565 -6.587657 -15.505004 -6.378455 0.000000 0.000000 0.000000 0.798475 -3.925425 38.990988 0.335981 0.445213 -11.402720 2.897030 -2.884950 -1.255348 -5.793829 4.509553 -24.746715 0.000000 0.000000 0.000000 -9.906548 -10.376351 3.411057 -55.124173 -6.137364 -3.070417 -30.084155 -49.779066 15.777465 0.000000 0.000000 0.000000 0.864425 11.526633 4.158546 55.791312 13.314852 1.684135 17.461002 67.618733 14.692443 0.000000 0.000000 0.000000 
-0.090444 0.838903 0.212645 0.900943 12.877666 7.853895 0.818936 -5.542488 -40.866869 -4.237735 -4.039369 63.776374 6.010753 10.469114 -8.426198 0.000000 0.000000 0.000000 -2.692204 0.964380 -46.411137 4.183581 -5.652165 69.807926 -5.849485 -13.672199 -5.180130 0.000000 0.000000 0.000000 1.075305 -3.746666 37.274432 -0.484590 0.774464 -12.491800 2.521708 -4.445078 1.678059 -5.189804 4.203269 -26.685374 0.000000 0.000000 0.000000 -4.591934 -13.048585 4.713627 -54.208899 -18.381568 2.186935 -36.139795 -69.208163 28.538871 0.000000 0.000000 0.000000 -4.707504 11.668639 3.970237 54.292541 22.617090 5.520260 -4.451030 76.208851 0.132100 0.000000 0.000000 0.000000 
